<?xml version="1.0" standalone="no"?>
<svg xmlns="http://www.w3.org/2000/svg" xmlns:xlink="http://www.w3.org/1999/xlink" width="734pt" height="755pt" viewBox="0.00 0.00 733.80 755.00">
<g id="graph0" class="graph" transform="translate(-5.258424730453271,736.8227387973101) scale(1.0828568323190926)" data-name="G">

<polygon fill="#2e3e56" stroke="transparent" points="-4,4 -4,-751 729.8,-751 729.8,4 -4,4" style=""/>
<g id="clust1" class="cluster" data-name="clusterIEPNSComV1">

<path fill="#445773" stroke="#445773" d="M45.19,-8C45.19,-8 187.99,-8 187.99,-8 193.99,-8 199.99,-14 199.99,-20 199.99,-20 199.99,-73 199.99,-73 199.99,-79 193.99,-85 187.99,-85 187.99,-85 45.19,-85 45.19,-85 39.19,-85 33.19,-79 33.19,-73 33.19,-73 33.19,-20 33.19,-20 33.19,-14 39.19,-8 45.19,-8" style=""/>
<text text-anchor="middle" x="116.59" y="-68.4" font-family="Times,serif" font-size="14.00" fill="#f0f0f0" style="">IEPNSComV1  (iface)</text>
</g>
<g id="clust2" class="cluster" data-name="clusterReferral">

<path fill="#445773" stroke="#445773" d="M20,-93C20,-93 705.8,-93 705.8,-93 711.8,-93 717.8,-99 717.8,-105 717.8,-105 717.8,-590 717.8,-590 717.8,-596 711.8,-602 705.8,-602 705.8,-602 20,-602 20,-602 14,-602 8,-596 8,-590 8,-590 8,-105 8,-105 8,-99 14,-93 20,-93" style=""/>
<text text-anchor="middle" x="362.9" y="-585.4" font-family="Times,serif" font-size="14.00" fill="#f0f0f0" style="">Referral</text>
</g>
<g id="clust3" class="cluster" data-name="clusterAddress">

<path fill="#3b4b63" stroke="#e8726d" stroke-dasharray="5,2" d="M305.45,-8C305.45,-8 401.04,-8 401.04,-8 407.04,-8 413.04,-14 413.04,-20 413.04,-20 413.04,-73 413.04,-73 413.04,-79 407.04,-85 401.04,-85 401.04,-85 305.45,-85 305.45,-85 299.45,-85 293.45,-79 293.45,-73 293.45,-73 293.45,-20 293.45,-20 293.45,-14 299.45,-8 305.45,-8" style=""/>
<text text-anchor="middle" x="353.24" y="-68.4" font-family="Times,serif" font-size="14.00" fill="#f0f0f0" style="">Address</text>
</g>
<g id="clust4" class="cluster" data-name="cluster_01">

<polygon fill="#2e3e56" stroke="black" points="43.59,-610 43.59,-739 388.24,-739 388.24,-610 43.59,-610" style=""/>
<text text-anchor="middle" x="215.92" y="-722.4" font-family="Times,serif" font-size="14.00" style="">Legend</text>
</g>
<!-- IEPNSComV1.sendNotification -->
<g id="node1" class="node" pointer-events="visible" data-name="IEPNSComV1.sendNotification">

<ellipse fill="#ffbdb9" stroke="#ffbdb9" stroke-width="3" cx="116.59" cy="-34" rx="75.3" ry="18" style=""/>
<text text-anchor="middle" x="116.59" y="-29.8" font-family="Times,serif" font-size="14.00" style="">sendNotification</text>
</g>
<!-- Referral.&lt;Constructor&gt; -->
<g id="node2" class="node" pointer-events="visible" data-name="Referral.&lt;Constructor&gt;">

<ellipse fill="#ff9797" stroke="#ff9797" stroke-width="3" cx="116.59" cy="-551" rx="67.55" ry="18" style=""/>
<text text-anchor="middle" x="116.59" y="-546.8" font-family="Times,serif" font-size="14.00" style="">&lt;Constructor&gt;</text>
</g>
<!-- Referral.setReferral -->
<g id="node6" class="node" pointer-events="visible" data-name="Referral.setReferral">

<ellipse fill="#edad56" stroke="#edad56" stroke-width="3" cx="353.24" cy="-497" rx="53.29" ry="18" style=""/>
<text text-anchor="middle" x="353.24" y="-492.8" font-family="Times,serif" font-size="14.00" style="">setReferral</text>
</g>
<!-- Referral.&lt;Constructor&gt;&#45;&gt;Referral.setReferral -->
<g id="edge2" class="edge" data-name="Referral.&lt;Constructor&gt;-&gt;Referral.setReferral">

<path fill="none" stroke="#1bc6a6" stroke-width="2" d="M168.22,-539.35C206.76,-530.48 259.69,-518.3 298.89,-509.28" style=""/>
<polygon fill="#1bc6a6" stroke="#1bc6a6" stroke-width="2" points="299.84,-512.65 308.8,-507 298.27,-505.83 299.84,-512.65" style=""/>
</g>
<!-- Referral._setupRole -->
<g id="node14" class="node" pointer-events="visible" data-name="Referral._setupRole">

<ellipse fill="#edad56" stroke="#edad56" stroke-width="3" cx="353.24" cy="-551" rx="54.48" ry="18" style=""/>
<text text-anchor="middle" x="353.24" y="-546.8" font-family="Times,serif" font-size="14.00" style="">_setupRole</text>
</g>
<!-- Referral.&lt;Constructor&gt;&#45;&gt;Referral._setupRole -->
<g id="edge1" class="edge" data-name="Referral.&lt;Constructor&gt;-&gt;Referral._setupRole">

<path fill="none" stroke="#1bc6a6" stroke-width="2" d="M184.2,-551C216.85,-551 255.98,-551 288.26,-551" style=""/>
<polygon fill="#1bc6a6" stroke="#1bc6a6" stroke-width="2" points="288.49,-554.5 298.49,-551 288.49,-547.5 288.49,-554.5" style=""/>
</g>
<!-- Referral.&lt;Receive Ether&gt; -->
<g id="node3" class="node" pointer-events="visible" data-name="Referral.&lt;Receive Ether&gt;">

<ellipse fill="#ffbdb9" stroke="brown" stroke-width="3" cx="116.59" cy="-497" rx="76.21" ry="18" style=""/>
<text text-anchor="middle" x="116.59" y="-492.8" font-family="Times,serif" font-size="14.00" style="">&lt;Receive Ether&gt;</text>
</g>
<!-- Referral._getRefereeBonusRate -->
<g id="node4" class="node" pointer-events="visible" data-name="Referral._getRefereeBonusRate">

<ellipse fill="#edad56" stroke="#edad56" stroke-width="3" cx="353.24" cy="-389" rx="100.12" ry="18" style=""/>
<text text-anchor="middle" x="353.24" y="-384.8" font-family="Times,serif" font-size="14.00" style="">_getRefereeBonusRate</text>
</g>
<!-- Referral._isCircularReference -->
<g id="node5" class="node" pointer-events="visible" data-name="Referral._isCircularReference">

<ellipse fill="#edad56" stroke="#edad56" stroke-width="3" cx="353.24" cy="-443" rx="93.16" ry="18" style=""/>
<text text-anchor="middle" x="353.24" y="-438.8" font-family="Times,serif" font-size="14.00" style="">_isCircularReference</text>
</g>
<!-- Referral.WrongLevelRate -->
<g id="node15" class="node" pointer-events="visible" data-name="Referral.WrongLevelRate">

<ellipse fill="#edad56" stroke="#edad56" stroke-width="3" cx="599.55" cy="-470" rx="77.56" ry="18" style=""/>
<text text-anchor="middle" x="599.55" y="-465.8" font-family="Times,serif" font-size="14.00" style="">WrongLevelRate</text>
</g>
<!-- Referral.setReferral&#45;&gt;Referral.WrongLevelRate -->
<g id="edge3" class="edge" data-name="Referral.setReferral-&gt;Referral.WrongLevelRate">

<path fill="none" stroke="#1bc6a6" stroke-width="2" d="M404.27,-491.47C437.33,-487.82 481.38,-482.95 519.17,-478.77" style=""/>
<polygon fill="#1bc6a6" stroke="#1bc6a6" stroke-width="2" points="519.59,-482.25 529.14,-477.67 518.82,-475.29 519.59,-482.25" style=""/>
</g>
<!-- Referral.WrongRefereeBonusRate -->
<g id="node16" class="node" pointer-events="visible" data-name="Referral.WrongRefereeBonusRate">

<ellipse fill="#edad56" stroke="#edad56" stroke-width="3" cx="599.55" cy="-524" rx="110" ry="18" style=""/>
<text text-anchor="middle" x="599.55" y="-519.8" font-family="Times,serif" font-size="14.00" style="">WrongRefereeBonusRate</text>
</g>
<!-- Referral.setReferral&#45;&gt;Referral.WrongRefereeBonusRate -->
<g id="edge4" class="edge" data-name="Referral.setReferral-&gt;Referral.WrongRefereeBonusRate">

<path fill="none" stroke="#1bc6a6" stroke-width="2" d="M404.27,-502.53C431.1,-505.49 465.17,-509.26 497.25,-512.8" style=""/>
<polygon fill="#1bc6a6" stroke="#1bc6a6" stroke-width="2" points="497.27,-516.33 507.59,-513.95 498.03,-509.37 497.27,-516.33" style=""/>
</g>
<!-- Referral.addReferrer -->
<g id="node7" class="node" pointer-events="visible" data-name="Referral.addReferrer">

<ellipse fill="#ffbdb9" stroke="#ffbdb9" stroke-width="3" cx="116.59" cy="-443" rx="57.29" ry="18" style=""/>
<text text-anchor="middle" x="116.59" y="-438.8" font-family="Times,serif" font-size="14.00" style="">addReferrer</text>
</g>
<!-- Referral.addReferrer&#45;&gt;Referral._isCircularReference -->
<g id="edge5" class="edge" data-name="Referral.addReferrer-&gt;Referral._isCircularReference">

<path fill="none" stroke="#1bc6a6" stroke-width="2" d="M173.79,-443C196.54,-443 223.53,-443 249.55,-443" style=""/>
<polygon fill="#1bc6a6" stroke="#1bc6a6" stroke-width="2" points="249.85,-446.5 259.85,-443 249.85,-439.5 249.85,-446.5" style=""/>
</g>
<!-- Referral.payReferral -->
<g id="node8" class="node" pointer-events="visible" data-name="Referral.payReferral">

<ellipse fill="#ffbdb9" stroke="#ffbdb9" stroke-width="3" cx="116.59" cy="-389" rx="56.72" ry="18" style=""/>
<text text-anchor="middle" x="116.59" y="-384.8" font-family="Times,serif" font-size="14.00" style="">payReferral</text>
</g>
<!-- Referral.payReferral&#45;&gt;Referral._getRefereeBonusRate -->
<g id="edge6" class="edge" data-name="Referral.payReferral-&gt;Referral._getRefereeBonusRate">

<path fill="none" stroke="#1bc6a6" stroke-width="2" d="M173.5,-389C194.37,-389 218.86,-389 242.9,-389" style=""/>
<polygon fill="#1bc6a6" stroke="#1bc6a6" stroke-width="2" points="243.16,-392.5 253.16,-389 243.16,-385.5 243.16,-392.5" style=""/>
</g>
<!-- Referral.updateReferrerActivity -->
<g id="node9" class="node" pointer-events="visible" data-name="Referral.updateReferrerActivity">

<ellipse fill="#ffbdb9" stroke="#ffbdb9" stroke-width="3" cx="116.59" cy="-335" rx="100.68" ry="18" style=""/>
<text text-anchor="middle" x="116.59" y="-330.8" font-family="Times,serif" font-size="14.00" style="">updateReferrerActivity</text>
</g>
<!-- Referral.withdrawCredits -->
<g id="node10" class="node" pointer-events="visible" data-name="Referral.withdrawCredits">

<ellipse fill="#ffbdb9" stroke="#ffbdb9" stroke-width="3" cx="116.59" cy="-281" rx="75.31" ry="18" style=""/>
<text text-anchor="middle" x="116.59" y="-276.8" font-family="Times,serif" font-size="14.00" style="">withdrawCredits</text>
</g>
<!-- Referral.payable -->
<g id="node17" class="node" pointer-events="visible" data-name="Referral.payable">

<ellipse fill="#edad56" stroke="#edad56" stroke-width="3" cx="353.24" cy="-254" rx="41.13" ry="18" style=""/>
<text text-anchor="middle" x="353.24" y="-249.8" font-family="Times,serif" font-size="14.00" style="">payable</text>
</g>
<!-- Referral.withdrawCredits&#45;&gt;Referral.payable -->
<g id="edge7" class="edge" data-name="Referral.withdrawCredits-&gt;Referral.payable">

<path fill="none" stroke="#1bc6a6" stroke-width="2" d="M184.83,-273.26C222.51,-268.93 268.67,-263.62 302.97,-259.67" style=""/>
<polygon fill="#1bc6a6" stroke="#1bc6a6" stroke-width="2" points="303.68,-263.11 313.21,-258.49 302.88,-256.16 303.68,-263.11" style=""/>
</g>
<!-- Referral.IERC20 -->
<g id="node18" class="node" pointer-events="visible" data-name="Referral.IERC20">

<ellipse fill="#edad56" stroke="#edad56" stroke-width="3" cx="353.24" cy="-308" rx="42.88" ry="18" style=""/>
<text text-anchor="middle" x="353.24" y="-303.8" font-family="Times,serif" font-size="14.00" style="">IERC20</text>
</g>
<!-- Referral.withdrawCredits&#45;&gt;Referral.IERC20 -->
<g id="edge9" class="edge" data-name="Referral.withdrawCredits-&gt;Referral.IERC20">

<path fill="none" stroke="#1bc6a6" stroke-width="2" d="M184.83,-288.74C222.02,-293.02 267.47,-298.25 301.63,-302.18" style=""/>
<polygon fill="#1bc6a6" stroke="#1bc6a6" stroke-width="2" points="301.51,-305.69 311.84,-303.35 302.31,-298.73 301.51,-305.69" style=""/>
</g>
<!-- Address.sendValue -->
<g id="node19" class="node" pointer-events="visible" data-name="Address.sendValue">

<ellipse fill="#edad56" stroke="#edad56" stroke-width="3" cx="353.24" cy="-34" rx="51.59" ry="18" style=""/>
<text text-anchor="middle" x="353.24" y="-29.8" font-family="Times,serif" font-size="14.00" style="">sendValue</text>
</g>
<!-- Referral.withdrawCredits&#45;&gt;Address.sendValue -->
<g id="edge8" class="edge" data-name="Referral.withdrawCredits-&gt;Address.sendValue">

<path fill="none" stroke="white" stroke-width="2" d="M185.23,-273.34C197.17,-269.22 208.54,-263.09 217.18,-254 268.91,-199.62 208.39,-149.23 253.18,-89 266.13,-71.58 286.33,-58.96 305.11,-50.24" style=""/>
<polygon fill="white" stroke="white" stroke-width="2" points="306.71,-53.36 314.47,-46.14 303.91,-46.94 306.71,-53.36" style=""/>
</g>
<!-- Referral.hasReferrer -->
<g id="node11" class="node" pointer-events="visible" data-name="Referral.hasReferrer">

<ellipse fill="#ffbdb9" stroke="#ffbdb9" stroke-width="3" cx="116.59" cy="-227" rx="56.14" ry="18" style=""/>
<text text-anchor="middle" x="116.59" y="-222.8" font-family="Times,serif" font-size="14.00" style="">hasReferrer</text>
</g>
<!-- Referral.referralCreditOf -->
<g id="node12" class="node" pointer-events="visible" data-name="Referral.referralCreditOf">

<ellipse fill="#ffbdb9" stroke="#ffbdb9" stroke-width="3" cx="116.59" cy="-173" rx="73.54" ry="18" style=""/>
<text text-anchor="middle" x="116.59" y="-168.8" font-family="Times,serif" font-size="14.00" style="">referralCreditOf</text>
</g>
<!-- Referral.getReferralAccount -->
<g id="node13" class="node" pointer-events="visible" data-name="Referral.getReferralAccount">

<ellipse fill="#ffbdb9" stroke="#ffbdb9" stroke-width="3" cx="116.59" cy="-119" rx="87.36" ry="18" style=""/>
<text text-anchor="middle" x="116.59" y="-114.8" font-family="Times,serif" font-size="14.00" style="">getReferralAccount</text>
</g>
<!-- key -->
<g id="node20" class="node" pointer-events="visible" data-name="key">

<polygon fill="#edad56" stroke="transparent" stroke-width="3" points="181.59,-706 51.59,-706 51.59,-618 181.59,-618 181.59,-706" style=""/>
<text text-anchor="start" x="101.23" y="-687.4" font-family="Times,serif" font-size="14.00" style="">Internal Call</text>
<text text-anchor="start" x="97.34" y="-667.4" font-family="Times,serif" font-size="14.00" style="">External Call</text>
<text text-anchor="start" x="74.79" y="-647.4" font-family="Times,serif" font-size="14.00" style="">Defined Contract</text>
<text text-anchor="start" x="61.19" y="-627.4" font-family="Times,serif" font-size="14.00" style="">Undefined Contract</text>
</g>
<!-- key2 -->
<g id="node21" class="node" pointer-events="visible" data-name="key2">

<polygon fill="#edad56" stroke="transparent" stroke-width="3" points="380.24,-706 326.24,-706 326.24,-618 380.24,-618 380.24,-706" style=""/>
<text text-anchor="start" x="343.24" y="-687.4" font-family="Times,serif" font-size="14.00" style="">   </text>
<text text-anchor="start" x="343.24" y="-667.4" font-family="Times,serif" font-size="14.00" style="">   </text>
<polygon fill="#445773" stroke="transparent" points="341.24,-642 341.24,-662 366.24,-662 366.24,-642 341.24,-642" style=""/>
<text text-anchor="start" x="343.24" y="-647.4" font-family="Times,serif" font-size="14.00" style="">   </text>
<polygon fill="none" stroke="#e8726d" points="343.24,-624 343.24,-640 364.24,-640 364.24,-624 343.24,-624" style=""/>
</g>
<!-- key&#45;&gt;key2 -->
<g id="edge10" class="edge" data-name="key-&gt;key2">

<path fill="none" stroke="#1bc6a6" stroke-width="2" d="M174.59,-692C244.76,-692 264.77,-692 330.24,-692" style=""/>
<polygon fill="#1bc6a6" stroke="#1bc6a6" stroke-width="2" points="330.24,-695.5 340.24,-692 330.24,-688.5 330.24,-695.5" style=""/>
</g>
<!-- key&#45;&gt;key2 -->
<g id="edge11" class="edge" data-name="key-&gt;key2">

<path fill="none" stroke="white" stroke-width="2" d="M174.59,-672C244.76,-672 264.77,-672 330.24,-672" style=""/>
<polygon fill="white" stroke="white" stroke-width="2" points="330.24,-675.5 340.24,-672 330.24,-668.5 330.24,-675.5" style=""/>
</g>
</g>
</svg>